<svg width="351" height="396" xmlns="http://www.w3.org/2000/svg" xmlns:xlink="http://www.w3.org/1999/xlink" xml:space="preserve" overflow="hidden"><defs><clipPath id="clip0"><rect x="0" y="0" width="351" height="396"/></clipPath></defs><g clip-path="url(#clip0)"><path d="M-32.9547-12.9724 318.417-12.9724 318.417 382.321-32.9547 382.321Z" stroke="#000000" stroke-width="0.183006" fill="#EEEEEE" transform="matrix(1 0 0 1.00176 32.9906 13.0011)"/><path d="M192.724 65.0578C184.537 84.414 186.086 96.551 197.367 101.466 214.289 108.837 254.527 111.786 271.346 127.778 288.165 143.77 339.448 131.408 348.217 103.961 356.988 76.5133 372.779 34.2083 289.51 34.2083 233.997 34.2083 201.736 44.4907 192.724 65.0578Z" fill="#FFFA72" transform="matrix(1 0 0 1.00176 32.9906 13.0011)"/><path d="M72.2633 103.277C77.8112 157.475 99.9943 191.456 138.811 205.217 197.034 225.86 314.037 234.116 384.65 278.893 455.262 323.671 580.671 289.055 564.862 212.203 549.052 135.352 531.051 16.8981 297.896 16.8981 142.46 16.8981 67.2501 45.6903 72.2642 103.277L72.2633 103.277Z" fill="#7D7D7D" transform="matrix(1 0 0 1.00176 32.9906 13.0011)"/><path d="M81.2989 100.091C83.8987 151.387 103.232 183.547 139.295 196.571 193.391 216.107 303.722 223.922 368.363 266.301 433.003 308.679 553.386 275.918 542.182 203.183 530.977 130.449 519.729 18.3402 299.066 18.3402 151.956 18.3402 79.3682 45.5896 81.2994 100.091L81.2989 100.091Z" fill="#717171" transform="matrix(1 0 0 1.00176 32.9906 13.0011)"/><path d="M90.5625 96.9066C90.6265 145.298 107.368 175.637 140.783 187.925 190.907 206.356 294.628 213.728 353.638 253.707 412.645 293.687 527.739 262.78 520.557 194.162 513.373 125.545 507.984 19.783 299.81 19.783 161.027 19.783 91.2786 45.4899 90.5625 96.9066Z" fill="#666666" transform="matrix(1 0 0 1.00176 32.9906 13.0011)"/><path d="M100.035 93.7232C97.9393 139.21 112.325 167.73 143.187 179.279 189.483 196.603 286.653 203.533 340.34 241.115 394.027 278.695 503.592 249.643 499.897 185.142 496.202 120.641 495.847 21.2251 300.164 21.2251 169.708 21.2251 103 45.3905 100.035 93.7232L100.035 93.7232Z" fill="#5B5B5B" transform="matrix(1 0 0 1.00176 32.9906 13.0011)"/><path d="M109.7 90.5376C105.793 133.122 118.04 159.821 146.439 170.634 189.038 186.852 279.708 193.339 328.361 228.522 377.011 263.704 480.827 236.505 480.127 176.122 479.429 115.738 483.35 22.6684 300.158 22.6684 178.029 22.6684 114.544 45.2908 109.701 90.5376L109.7 90.5376Z" fill="#4F4F4F" transform="matrix(1 0 0 1.00176 32.9906 13.0011)"/><path d="M119.547 87.3528C114.147 127.034 124.457 151.912 150.474 161.987 189.5 177.1 273.72 183.145 317.604 215.929 361.486 248.712 459.346 223.369 461.186 167.102 463.026 110.836 470.52 24.1105 299.819 24.1105 186.016 24.1105 125.926 45.1905 119.547 87.3528L119.547 87.3528Z" fill="#444444" transform="matrix(1 0 0 1.00176 32.9906 13.0011)"/><path d="M129.56 84.1679C122.971 120.945 131.534 144.003 155.244 153.341 190.811 167.348 268.629 172.951 307.991 203.336 347.355 233.721 439.065 210.232 443.017 158.082 446.968 105.932 457.378 25.5534 299.166 25.5534 193.691 25.5534 137.156 45.0913 129.56 84.1679L129.56 84.1679Z" fill="#393939" transform="matrix(1 0 0 1.00176 32.9906 13.0011)"/><path d="M139.731 80.9818C132.238 114.856 139.23 136.094 160.707 144.696 192.923 157.596 264.38 162.757 299.458 190.743 334.535 218.729 419.916 197.094 425.576 149.062 431.237 101.03 443.94 26.9954 298.219 26.9954 201.071 26.9954 148.243 44.9916 139.732 80.9818L139.731 80.9818Z" fill="#2D2D2D" transform="matrix(1 0 0 1.00176 32.9906 13.0011)"/><path d="M150.053 77.7982C141.923 108.768 147.514 128.186 166.826 136.05 195.795 147.845 260.931 152.563 291.946 178.15 322.961 203.737 401.84 183.956 408.828 140.042 415.817 96.1257 430.225 28.4377 296.993 28.4377 208.172 28.4377 159.193 44.8909 150.053 77.7982L150.053 77.7982Z" fill="#222222" transform="matrix(1 0 0 1.00176 32.9906 13.0011)"/><path d="M160.517 74.6122C152.009 102.679 156.362 120.277 173.573 127.403 199.391 138.093 258.248 142.369 285.412 165.558 312.577 188.746 384.79 170.819 392.74 131.021 400.69 91.223 416.241 29.8802 295.501 29.8802 215.007 29.8802 170.013 44.7906 160.518 74.6122L160.517 74.6122Z" fill="#171717" transform="matrix(1 0 0 1.00176 32.9906 13.0011)"/><path d="M171.12 71.4277C162.481 96.5924 165.75 112.368 180.924 118.758 203.685 128.341 256.299 132.174 279.818 152.964 303.338 173.753 368.725 157.682 377.287 122.001 385.849 86.3195 402.001 31.3228 293.751 31.3228 221.584 31.3228 180.707 44.6911 171.12 71.4277Z" fill="#0B0B0B" transform="matrix(1 0 0 1.00176 32.9906 13.0011)"/><path d="M181.856 68.2432C173.327 90.5036 175.662 104.459 188.859 110.111 208.657 118.589 255.064 121.98 275.138 140.372 295.209 158.762 353.62 144.545 362.452 112.981 371.284 81.4166 387.512 32.766 291.752 32.766 227.912 32.766 191.281 44.5913 181.857 68.2432L181.856 68.2432Z" transform="matrix(1 0 0 1.00176 32.9906 13.0011)"/></g></svg>