<svg id="eg5YESIejDM1" xmlns="http://www.w3.org/2000/svg" xmlns:xlink="http://www.w3.org/1999/xlink" viewBox="0 0 351 396" shape-rendering="geometricPrecision" text-rendering="geometricPrecision" project-id="1aa5b92de5774ead8eebdfacd2218d63" export-id="71b95fdad619420698cca4bd9fcd2666" cached="false">
<style><![CDATA[
#eg5YESIejDM6_to {animation: eg5YESIejDM6_to__to 6000ms linear infinite normal forwards}@keyframes eg5YESIejDM6_to__to { 0% {offset-distance: 0%;animation-timing-function: cubic-bezier(0.445,0.05,0.55,0.95)} 50% {offset-distance: 50%;animation-timing-function: cubic-bezier(0.445,0.05,0.55,0.95)} 100% {offset-distance: 100%}} #eg5YESIejDM7_to {animation: eg5YESIejDM7_to__to 6000ms linear infinite normal forwards}@keyframes eg5YESIejDM7_to__to { 0% {transform: translate(32.990601px,13.0011px);animation-timing-function: cubic-bezier(0.445,0.05,0.55,0.95)} 50% {transform: translate(37.99px,13.0011px);animation-timing-function: cubic-bezier(0.445,0.05,0.55,0.95)} 100% {transform: translate(32.990601px,13.0011px)}} #eg5YESIejDM8_to {animation: eg5YESIejDM8_to__to 6000ms linear infinite normal forwards}@keyframes eg5YESIejDM8_to__to { 0% {transform: translate(32.990601px,13.0011px);animation-timing-function: cubic-bezier(0.445,0.05,0.55,0.95)} 50% {transform: translate(38.99px,13.0011px);animation-timing-function: cubic-bezier(0.445,0.05,0.55,0.95)} 100% {transform: translate(32.990601px,13.0011px)}} #eg5YESIejDM9_to {animation: eg5YESIejDM9_to__to 6000ms linear infinite normal forwards}@keyframes eg5YESIejDM9_to__to { 0% {transform: translate(32.990601px,13.0011px);animation-timing-function: cubic-bezier(0.445,0.05,0.55,0.95)} 50% {transform: translate(40.99px,13.0011px);animation-timing-function: cubic-bezier(0.445,0.05,0.55,0.95)} 100% {transform: translate(32.990601px,13.0011px)}} #eg5YESIejDM10_to {animation: eg5YESIejDM10_to__to 6000ms linear infinite normal forwards}@keyframes eg5YESIejDM10_to__to { 0% {transform: translate(32.990601px,13.0011px);animation-timing-function: cubic-bezier(0.445,0.05,0.55,0.95)} 50% {transform: translate(42.99px,13.0011px);animation-timing-function: cubic-bezier(0.445,0.05,0.55,0.95)} 100% {transform: translate(32.990601px,13.0011px)}} #eg5YESIejDM11_to {animation: eg5YESIejDM11_to__to 6000ms linear infinite normal forwards}@keyframes eg5YESIejDM11_to__to { 0% {transform: translate(32.990601px,13.0011px);animation-timing-function: cubic-bezier(0.445,0.05,0.55,0.95)} 50% {transform: translate(44.99px,13.0011px);animation-timing-function: cubic-bezier(0.445,0.05,0.55,0.95)} 100% {transform: translate(32.990601px,13.0011px)}} #eg5YESIejDM12_to {animation: eg5YESIejDM12_to__to 6000ms linear infinite normal forwards}@keyframes eg5YESIejDM12_to__to { 0% {transform: translate(32.990601px,13.0011px);animation-timing-function: cubic-bezier(0.445,0.05,0.55,0.95)} 50% {transform: translate(46.99px,13.0011px);animation-timing-function: cubic-bezier(0.445,0.05,0.55,0.95)} 100% {transform: translate(32.990601px,13.0011px)}} #eg5YESIejDM13_to {animation: eg5YESIejDM13_to__to 6000ms linear infinite normal forwards}@keyframes eg5YESIejDM13_to__to { 0% {transform: translate(32.990601px,13.0011px);animation-timing-function: cubic-bezier(0.445,0.05,0.55,0.95)} 50% {transform: translate(48.99px,13.0011px);animation-timing-function: cubic-bezier(0.445,0.05,0.55,0.95)} 100% {transform: translate(32.990601px,13.0011px)}} #eg5YESIejDM14_to {animation: eg5YESIejDM14_to__to 6000ms linear infinite normal forwards}@keyframes eg5YESIejDM14_to__to { 0% {transform: translate(32.990601px,13.0011px);animation-timing-function: cubic-bezier(0.445,0.05,0.55,0.95)} 50% {transform: translate(50.99px,13.0011px);animation-timing-function: cubic-bezier(0.445,0.05,0.55,0.95)} 100% {transform: translate(32.990601px,13.0011px)}} #eg5YESIejDM15_to {animation: eg5YESIejDM15_to__to 6000ms linear infinite normal forwards}@keyframes eg5YESIejDM15_to__to { 0% {transform: translate(32.990601px,13.0011px);animation-timing-function: cubic-bezier(0.445,0.05,0.55,0.95)} 50% {transform: translate(52.99px,13.0011px);animation-timing-function: cubic-bezier(0.445,0.05,0.55,0.95)} 100% {transform: translate(32.990601px,13.0011px)}} #eg5YESIejDM16_to {animation: eg5YESIejDM16_to__to 6000ms linear infinite normal forwards}@keyframes eg5YESIejDM16_to__to { 0% {transform: translate(32.990601px,13.0011px);animation-timing-function: cubic-bezier(0.445,0.05,0.55,0.95)} 50% {transform: translate(54.99px,13.0011px);animation-timing-function: cubic-bezier(0.445,0.05,0.55,0.95)} 100% {transform: translate(32.990601px,13.0011px)}} #eg5YESIejDM17_to {animation: eg5YESIejDM17_to__to 6000ms linear infinite normal forwards}@keyframes eg5YESIejDM17_to__to { 0% {transform: translate(32.99px,13.0011px);animation-timing-function: cubic-bezier(0.445,0.05,0.55,0.95)} 50% {transform: translate(56.99px,13.0011px);animation-timing-function: cubic-bezier(0.445,0.05,0.55,0.95)} 100% {transform: translate(32.99px,13.0011px)}}
]]></style>
<g clip-path="url(#eg5YESIejDM18)"><g><path d="M-32.9547,-12.9724h351.3717v395.2934h-351.3717v-395.2934Z" transform="matrix(1 0 0 1.00176 32.990601 13.0011)" fill="#000000" stroke="#000000" stroke-width="0.1860006"/><path d="M192.724,65.0578c-8.187,19.3562-6.638,31.4932,4.643,36.4082c16.922,7.371,57.16,10.32,73.979,26.312s68.102,3.63,76.871-23.817c8.771-27.4477,24.562-69.7527-58.707-69.7527-55.513,0-87.774,10.2824-96.786,30.8495Z" transform="matrix(1 0 0 1.00176 32.990601 13.0011)" fill="#fffa72"/><g id="eg5YESIejDM6_to" style="offset-path:path('M32.99,13.0011Q32.99,13.0011,35.99,13.0011C35.99,13.0011,32.99,13.0011,32.99,13.0011');offset-rotate:0deg"><path d="M72.2633,103.277c5.5479,54.198,27.731,88.179,66.5477,101.94c58.223,20.643,175.226,28.899,245.839,73.676c70.612,44.778,196.021,10.162,180.212-66.69-15.81-76.851-33.811-195.3049-266.966-195.3049-155.436,0-230.6459,28.7922-225.6318,86.3789h-.0009Z" transform="scale(1,1.00176) translate(0,0)" fill="#7d7d7d"/></g><g id="eg5YESIejDM7_to" transform="translate(32.990601,13.0011)"><path d="M81.2989,100.091c2.5998,51.296,21.9331,83.456,57.9961,96.48c54.096,19.536,164.427,27.351,229.068,69.73c64.64,42.378,185.023,9.617,173.819-63.118-11.205-72.734-22.453-184.8428-243.116-184.8428-147.11,0-219.6978,27.2494-217.7666,81.7508h-.0005Z" transform="scale(1,1.00176) translate(0,0)" fill="#717171"/></g><g id="eg5YESIejDM8_to" transform="translate(32.990601,13.0011)"><path d="M90.5625,96.9066c.064,48.3914,16.8055,78.7304,50.2205,91.0184c50.124,18.431,153.845,25.803,212.855,65.782c59.007,39.98,174.101,9.073,166.919-59.545-7.184-68.617-12.573-174.379-220.747-174.379-138.783,0-208.5314,25.7069-209.2475,77.1236Z" transform="scale(1,1.00176) translate(0,0)" fill="#666"/></g><g id="eg5YESIejDM9_to" transform="translate(32.990601,13.0011)"><path d="M100.035,93.7232c-2.0957,45.4868,12.29,74.0068,43.152,85.5558c46.296,17.324,143.466,24.254,197.153,61.836c53.687,37.58,163.252,8.528,159.557-55.973s-4.05-163.9169-199.733-163.9169c-130.456,0-197.164,24.1654-200.129,72.4981v0Z" transform="scale(1,1.00176) translate(0,0)" fill="#5b5b5b"/></g><g id="eg5YESIejDM10_to" transform="translate(32.990601,13.0011)"><path d="M109.7,90.5376c-3.907,42.5844,8.34,69.2834,36.739,80.0964c42.599,16.218,133.269,22.705,181.922,57.888c48.65,35.182,152.466,7.983,151.766-52.4-.698-60.384,3.223-153.4536-179.969-153.4536-122.129,0-185.614,22.6224-190.457,67.8692h-.001Z" transform="scale(1,1.00176) translate(0,0)" fill="#4f4f4f"/></g><g id="eg5YESIejDM11_to" transform="translate(32.990601,13.0011)"><path d="M119.547,87.3528c-5.4,39.6812,4.91,64.5592,30.927,74.6342C189.5,177.1,273.72,183.145,317.604,215.929c43.882,32.783,141.742,7.44,143.582-48.827c1.84-56.266,9.334-142.9915-161.367-142.9915-113.803,0-173.893,21.08-180.272,63.2423v0Z" transform="scale(1,1.00176) translate(0,0)" fill="#444"/></g><g id="eg5YESIejDM12_to" transform="translate(32.990601,13.0011)"><path d="M129.56,84.1679c-6.589,36.7771,1.974,59.8351,25.684,69.1731c35.567,14.007,113.385,19.61,152.747,49.995c39.364,30.385,131.074,6.896,135.026-45.254c3.951-52.15,14.361-132.5286-143.851-132.5286-105.475,0-162.01,19.5379-169.606,58.6145v0Z" transform="scale(1,1.00176) translate(0,0)" fill="#393939"/></g><g id="eg5YESIejDM13_to" transform="translate(32.990601,13.0011)"><path d="M139.731,80.9818c-7.493,33.8742-.501,55.1122,20.976,63.7142c32.216,12.9,103.673,18.061,138.751,46.047c35.077,27.986,120.458,6.351,126.118-41.681C431.237,101.03,443.94,26.9954,298.219,26.9954c-97.148,0-149.976,17.9962-158.487,53.9864h-.001Z" transform="scale(1,1.00176) translate(0,0)" fill="#2d2d2d"/></g><g id="eg5YESIejDM14_to" transform="translate(32.990601,13.0011)"><path d="M150.053,77.7982c-8.13,30.9698-2.539,50.3878,16.773,58.2518c28.969,11.795,94.105,16.513,125.12,42.1s109.894,5.806,116.882-38.108c6.989-43.9163,21.397-111.6043-111.835-111.6043-88.821,0-137.8,16.4532-146.94,49.3605v0Z" transform="scale(1,1.00176) translate(0,0)" fill="#222"/></g><g id="eg5YESIejDM15_to" transform="translate(32.990601,13.0011)"><path d="M160.517,74.6122c-8.508,28.0668-4.155,45.6648,13.056,52.7908c25.818,10.69,84.675,14.966,111.839,38.155c27.165,23.188,99.378,5.261,107.328-34.537s23.501-101.1408-97.239-101.1408c-80.494,0-125.488,14.9104-134.983,44.732h-.001Z" transform="scale(1,1.00176) translate(0,0)" fill="#171717"/></g><g id="eg5YESIejDM16_to" transform="translate(32.990601,13.0011)"><path d="M171.12,71.4277c-8.639,25.1647-5.37,40.9403,9.804,47.3303c22.761,9.583,75.375,13.416,98.894,34.206c23.52,20.789,88.907,4.718,97.469-30.963c8.562-35.6815,24.714-90.6782-83.536-90.6782-72.167,0-113.044,13.3683-122.631,40.1049Z" transform="scale(1,1.00176) translate(0,0)" fill="#0b0b0b"/></g><g id="eg5YESIejDM17_to" transform="translate(32.99,13.0011)"><path d="M181.856,68.2432c-8.529,22.2604-6.194,36.2158,7.003,41.8678c19.798,8.478,66.205,11.869,86.279,30.261c20.071,18.39,78.482,4.173,87.314-27.391c8.832-31.5644,25.06-80.215-70.7-80.215-63.84,0-100.471,11.8253-109.895,35.4772h-.001Z" transform="scale(1,1.00176) translate(0,0)"/></g></g><clipPath id="eg5YESIejDM18"><rect width="351" height="396" rx="0" ry="0"/></clipPath></g></svg>
