<svg xmlns="http://www.w3.org/2000/svg" viewBox="0 0 32 32"><title>4-Mail</title><g id="_4-Mail" data-name="4-Mail"><path d="M19,26H4a4,4,0,0,1-4-4V6A4,4,0,0,1,4,2H28a4,4,0,0,1,4,4V17a1,1,0,0,1-2,0V6a2,2,0,0,0-2-2H4A2,2,0,0,0,2,6V22a2,2,0,0,0,2,2H19a1,1,0,0,1,0,2Z"/><path d="M16,16a1,1,0,0,1-.618-.214l-14-11A1,1,0,0,1,2.618,3.214L16,13.728,29.382,3.214a1,1,0,0,1,1.236,1.572l-14,11A1,1,0,0,1,16,16Z"/><path d="M2,25a1,1,0,0,1-.707-1.707l11-11a1,1,0,0,1,1.414,1.414l-11,11A1,1,0,0,1,2,25Z"/><path d="M24,19a1,1,0,0,1-.707-.293l-5-5a1,1,0,0,1,1.414-1.414l5,5A1,1,0,0,1,24,19Z"/><path d="M30,25a1,1,0,0,1-.707-.293L27,22.414l-2.293,2.293a1,1,0,0,1-1.414-1.414l3-3a1,1,0,0,1,1.414,0l3,3A1,1,0,0,1,30,25Z"/><path d="M24,30a1,1,0,0,1,0-2,1.883,1.883,0,0,0,2-2V21a1,1,0,0,1,2,0v5A3.887,3.887,0,0,1,24,30Z"/></g></svg>