<?xml version="1.0" encoding="utf-8"?>
<svg viewBox="-180.074 -70.885 3274.0982 2160" xmlns="http://www.w3.org/2000/svg">
  <rect x="-180.074" y="-70.885" height="2160" style="stroke: rgb(0, 0, 0); fill: rgb(238, 238, 238);" width="1920" transform="matrix(0.9999999999999999, 0, 0, 0.9999999999999999, 4.547473508864641e-13, 0)"/>
  <path d="M 1053.099 355.495 C 1008.365 461.263 1016.827 527.583 1078.471 554.44 C 1170.937 594.718 1390.809 610.834 1482.715 698.219 C 1574.617 785.599 1854.842 718.05 1902.762 568.071 C 1950.689 418.091 2036.973 186.924 1581.968 186.924 C 1278.628 186.924 1102.342 243.11 1053.099 355.495 Z" fill="#FFFA72" fill-rule="nonzero" style="" transform="matrix(0.9999999999999999, 0, 0, 0.9999999999999999, 4.547473508864641e-13, 0)"/>
  <path d="M 394.868 564.336 C 425.183 860.489 546.398 1046.173 758.502 1121.364 C 1076.654 1234.163 1715.988 1279.277 2101.842 1523.954 C 2487.684 1768.631 3172.954 1579.48 3086.572 1159.539 C 3000.183 739.601 2901.816 92.336 1627.792 92.336 C 778.441 92.336 367.474 249.665 394.873 564.336 L 394.868 564.336 Z" fill="#FFFA72" fill-rule="nonzero" style="position: relative; z-index: 0; fill: rgb(125, 125, 125);" transform="matrix(0.9999999999999999, 0, 0, 0.9999999999999999, 4.547473508864641e-13, 0)"/>
  <path d="M 444.241 546.927 C 458.447 827.224 564.089 1002.955 761.151 1074.122 C 1056.744 1180.873 1659.625 1223.573 2012.844 1455.148 C 2366.054 1686.712 3023.864 1507.695 2962.639 1110.251 C 2901.411 712.81 2839.953 100.216 1634.186 100.216 C 830.333 100.216 433.691 249.115 444.244 546.927 L 444.241 546.927 Z" fill="#FFFA72" fill-rule="nonzero" style="position: relative; z-index: 1; fill: rgb(113, 113, 113);" transform="matrix(0.9999999999999999, 0, 0, 0.9999999999999999, 4.547473508864641e-13, 0)"/>
  <path d="M 494.86 529.526 C 495.21 793.952 586.688 959.734 769.278 1026.876 C 1043.172 1127.588 1609.936 1167.87 1932.379 1386.329 C 2254.812 1604.79 2883.723 1435.907 2844.474 1060.96 C 2805.219 686.017 2775.772 108.1 1638.25 108.1 C 879.899 108.1 498.773 248.57 494.86 529.526 Z" fill="#FFFA72" fill-rule="nonzero" style="position: relative; z-index: 2; fill: rgb(102, 102, 102);" transform="matrix(0.9999999999999999, 0, 0, 0.9999999999999999, 4.547473508864641e-13, 0)"/>
  <path d="M 546.618 512.131 C 535.169 760.683 613.774 916.526 782.418 979.632 C 1035.39 1074.299 1566.355 1112.164 1859.715 1317.523 C 2153.077 1522.873 2751.773 1364.123 2731.583 1011.668 C 2711.391 659.219 2709.455 115.98 1640.186 115.98 C 927.334 115.98 562.82 248.027 546.621 512.131 L 546.618 512.131 Z" fill="#FFFA72" fill-rule="nonzero" style="position: relative; z-index: 3; fill: rgb(91, 91, 91);" transform="matrix(0.9999999999999999, 0, 0, 0.9999999999999999, 4.547473508864641e-13, 0)"/>
  <path d="M 599.434 494.724 C 578.085 727.418 645.003 873.306 800.184 932.392 C 1032.957 1021.014 1528.407 1056.461 1794.26 1248.709 C 2060.1 1440.957 2627.378 1292.335 2623.555 962.381 C 2619.738 632.429 2641.168 123.867 1640.151 123.867 C 972.804 123.867 625.903 247.482 599.439 494.724 L 599.434 494.724 Z" fill="#FFFA72" fill-rule="nonzero" style="position: relative; z-index: 4; fill: rgb(79, 79, 79);" transform="matrix(0.9999999999999999, 0, 0, 0.9999999999999999, 4.547473508864641e-13, 0)"/>
  <path d="M 653.239 477.321 C 623.735 694.152 680.071 830.09 822.233 885.144 C 1035.482 967.725 1495.687 1000.756 1735.482 1179.899 C 1975.267 1359.037 2510 1220.553 2520.054 913.096 C 2530.107 605.638 2571.061 131.747 1638.299 131.747 C 1016.448 131.747 688.098 246.934 653.24 477.321 L 653.239 477.321 Z" fill="#FFFA72" fill-rule="nonzero" style="position: relative; z-index: 5; fill: rgb(68, 68, 68);" transform="matrix(0.9999999999999999, 0, 0, 0.9999999999999999, 4.547473508864641e-13, 0)"/>
  <path d="M 707.953 459.918 C 671.951 660.881 718.74 786.875 848.298 837.899 C 1042.646 914.441 1467.866 945.053 1682.955 1111.089 C 1898.048 1277.119 2399.182 1148.768 2420.773 863.805 C 2442.362 578.845 2499.245 139.631 1634.731 139.631 C 1058.385 139.631 749.46 246.392 707.956 459.918 L 707.953 459.918 Z" fill="#FFFA72" fill-rule="nonzero" style="position: relative; z-index: 6; fill: rgb(57, 57, 57);" transform="matrix(0.9999999999999999, 0, 0, 0.9999999999999999, 4.547473508864641e-13, 0)"/>
  <path d="M 763.529 442.508 C 722.588 627.609 760.794 743.657 878.152 790.659 C 1054.19 861.152 1444.649 889.352 1636.327 1042.275 C 1827.999 1195.197 2294.545 1076.979 2325.473 814.519 C 2356.407 552.055 2425.819 147.511 1629.556 147.511 C 1098.713 147.511 810.043 245.847 763.535 442.508 L 763.529 442.508 Z" fill="#FFFA72" fill-rule="nonzero" style="position: relative; z-index: 7; fill: rgb(45, 45, 45);" transform="matrix(0.9999999999999999, 0, 0, 0.9999999999999999, 4.547473508864641e-13, 0)"/>
  <path d="M 819.933 425.112 C 775.508 594.34 806.062 700.444 911.588 743.415 C 1069.88 807.866 1425.802 833.647 1595.278 973.465 C 1764.756 1113.279 2195.77 1005.19 2233.958 765.228 C 2272.144 525.259 2350.873 155.392 1622.858 155.392 C 1137.515 155.392 869.877 245.297 819.934 425.112 L 819.933 425.112 Z" fill="#FFFA72" fill-rule="nonzero" style="position: relative; z-index: 8; fill: rgb(34, 34, 34);" transform="matrix(0.9999999999999999, 0, 0, 0.9999999999999999, 4.547473508864641e-13, 0)"/>
  <path d="M 877.111 407.703 C 830.622 561.07 854.405 657.229 948.456 696.167 C 1089.529 754.579 1411.141 777.944 1559.574 904.656 C 1708.011 1031.363 2102.603 933.407 2146.045 715.938 C 2189.489 498.469 2274.463 163.274 1614.703 163.274 C 1174.859 163.274 929 244.749 877.116 407.703 L 877.111 407.703 Z" fill="#FFFA72" fill-rule="nonzero" style="position: relative; z-index: 9; fill: rgb(23, 23, 23);" transform="matrix(0.9999999999999999, 0, 0, 0.9999999999999999, 4.547473508864641e-13, 0)"/>
  <path d="M 935.051 390.302 C 887.845 527.809 905.705 614.012 988.619 648.927 C 1112.995 701.293 1400.493 722.24 1529.01 835.84 C 1657.527 949.439 2014.824 861.622 2061.608 666.648 C 2108.393 471.675 2196.65 171.157 1605.14 171.157 C 1210.8 171.157 987.434 244.205 935.051 390.302 Z" fill="#FFFA72" fill-rule="nonzero" style="position: relative; z-index: 10; fill: rgb(11, 11, 11);" transform="matrix(0.9999999999999999, 0, 0, 0.9999999999999999, 4.547473508864641e-13, 0)"/>
  <path d="M 993.716 372.901 C 947.11 494.538 959.867 570.797 1031.983 601.678 C 1140.164 648.007 1393.747 666.535 1503.432 767.033 C 1613.109 867.522 1932.282 789.835 1980.545 617.361 C 2028.803 444.884 2117.479 179.043 1594.22 179.043 C 1245.377 179.043 1045.214 243.66 993.722 372.901 L 993.716 372.901 Z" fill="#FFFA72" fill-rule="nonzero" style="position: relative; z-index: 11; fill: rgb(0, 0, 0);" transform="matrix(0.9999999999999999, 0, 0, 0.9999999999999999, 4.547473508864641e-13, 0)"/>
</svg>